name kv01_filtered_grf.mot
datacolumns 37
datarows 9
range 0.473500 0.477500
endheader
time	1_ground_force_vx	1_ground_force_vy	1_ground_force_vz	1_ground_force_px	1_ground_force_py	1_ground_force_pz	1_ground_torque_x	1_ground_torque_y	1_ground_torque_z	2_ground_force_vx	2_ground_force_vy	2_ground_force_vz	2_ground_force_px	2_ground_force_py	2_ground_force_pz	2_ground_torque_x	2_ground_torque_y	2_ground_torque_z	3_ground_force_vx	3_ground_force_vy	3_ground_force_vz	3_ground_force_px	3_ground_force_py	3_ground_force_pz	3_ground_torque_x	3_ground_torque_y	3_ground_torque_z	4_ground_force_vx	4_ground_force_vy	4_ground_force_vz	4_ground_force_px	4_ground_force_py	4_ground_force_pz	4_ground_torque_x	4_ground_torque_y	4_ground_torque_z
            0.473500	            0.000001	           -0.000006	           -0.000139	            0.450000	            0.000000	            0.900000	            0.000011	           -0.000034	            0.000005	            0.000000	           -0.000000	           -0.000000	           -0.148868	            0.000000	            0.176960	           -0.000000	            0.000000	           -0.000000	           16.232261	          307.831685	           43.087858	            0.385916	            0.966623	            1.074928	           -0.035137	           -0.666338	           -0.093269	            4.189145	          359.718673	           28.946754	           -0.369576	            0.965631	            1.108111	            1.080901	           -0.174761	           18.571950
            0.474000	            0.000001	           -0.000001	           -0.000137	            0.450000	            0.000000	            0.900000	            0.000006	           -0.000033	            0.000004	            0.000000	           -0.000000	           -0.000000	           -0.148868	            0.000000	            0.176960	           -0.000000	            0.000000	           -0.000000	           16.065252	          307.232502	           42.656703	            0.385926	            0.966632	            1.074940	           -0.035330	           -0.675657	           -0.093809	            4.311581	          359.087218	           28.601304	           -0.369574	            0.965639	            1.108117	            1.099413	           -0.147301	           18.574171
            0.474500	            0.000000	            0.000004	           -0.000133	            0.450000	            0.000000	            0.900000	            0.000002	           -0.000032	            0.000003	            0.000000	           -0.000000	           -0.000000	           -0.148868	            0.000000	            0.176960	           -0.000000	            0.000000	           -0.000000	           15.904461	          306.617719	           42.221686	            0.385937	            0.966641	            1.074952	           -0.035525	           -0.684871	           -0.094308	            4.430662	          358.434696	           28.251717	           -0.369573	            0.965646	            1.108123	            1.117712	           -0.119769	           18.575562
            0.475000	            0.000000	            0.000008	           -0.000129	            0.450000	            0.000000	            0.900000	           -0.000002	           -0.000031	            0.000002	            0.000000	           -0.000000	           -0.000000	           -0.148868	            0.000000	            0.176960	           -0.000000	            0.000000	           -0.000000	           15.750061	          305.987154	           41.782894	            0.385947	            0.966651	            1.074965	           -0.035721	           -0.693973	           -0.094763	            4.546342	          357.760837	           27.898077	           -0.369571	            0.965653	            1.108129	            1.135792	           -0.092173	           18.576114
            0.475500	           -0.000000	            0.000012	           -0.000125	            0.450000	            0.000000	            0.900000	           -0.000006	           -0.000030	            0.000001	           -0.000000	           -0.000000	           -0.000000	           -0.148868	            0.000000	            0.176960	           -0.000000	            0.000000	           -0.000000	           15.602178	          305.340307	           41.342799	            0.385955	            0.966661	            1.074977	           -0.035919	           -0.702954	           -0.095179	            4.658811	          357.065561	           27.537971	           -0.369568	            0.965663	            1.108134	            1.153831	           -0.064391	           18.575806
            0.476000	           -0.000000	            0.000015	           -0.000121	            0.450000	            0.000000	            0.900000	           -0.000010	           -0.000028	           -0.000000	           -0.000000	           -0.000000	           -0.000000	           -0.148868	            0.000000	            0.176960	           -0.000000	            0.000000	           -0.000000	           15.461008	          304.677329	           40.899095	            0.385963	            0.966672	            1.074989	           -0.036121	           -0.711810	           -0.095552	            4.767807	          356.348409	           27.174015	           -0.369564	            0.965672	            1.108140	            1.171643	           -0.036558	           18.574638
            0.476500	           -0.000001	            0.000019	           -0.000116	            0.450000	            0.000000	            0.900000	           -0.000014	           -0.000027	           -0.000001	           -0.000000	           -0.000000	           -0.000000	           -0.148868	            0.000000	            0.176960	           -0.000000	            0.000000	           -0.000000	           15.326694	          303.998044	           40.451872	            0.385970	            0.966682	            1.075002	           -0.036327	           -0.720535	           -0.095879	            4.873312	          355.609124	           26.806318	           -0.369560	            0.965682	            1.108145	            1.189225	           -0.008680	           18.572600
            0.477000	           -0.000001	            0.000022	           -0.000110	            0.450000	            0.000000	            0.900000	           -0.000017	           -0.000025	           -0.000002	           -0.000000	           -0.000000	           -0.000000	           -0.148868	            0.000000	            0.176960	           -0.000000	            0.000000	           -0.000000	           15.199368	          303.302279	           40.001221	            0.385978	            0.966693	            1.075014	           -0.036538	           -0.729121	           -0.096161	            4.975311	          354.847450	           26.434997	           -0.369557	            0.965692	            1.108151	            1.206574	            0.019236	           18.569682
            0.477500	           -0.000001	            0.000025	           -0.000105	            0.450000	            0.000000	            0.900000	           -0.000020	           -0.000024	           -0.000003	           -0.000000	           -0.000000	           -0.000000	           -0.148868	            0.000000	            0.176960	           -0.000000	            0.000000	           -0.000000	           15.079152	          302.589866	           39.547236	            0.385986	            0.966703	            1.075026	           -0.036756	           -0.737565	           -0.096397	            5.073803	          354.063141	           26.060177	           -0.369553	            0.965701	            1.108156	            1.223686	            0.047183	           18.565875
